<?xml version="1.0" encoding="UTF-8" standalone="no"?>
<!-- Created with Inkscape (http://www.inkscape.org/) -->
<svg
   xmlns:svg="http://www.w3.org/2000/svg"
   xmlns="http://www.w3.org/2000/svg"
   version="1.0"
   width="800"
   height="221.412"
   viewBox="0 0 800 221.412"
   id="Layer_1"
   xml:space="preserve"><defs
   id="defs16" />
<g
   id="g3">
	<path
   d="M 560.263,108.263 C 507.409,104.224 468.652,135.201 469.541,163.488 C 470.416,192.457 503.894,221.413 554.097,221.413 C 599.456,221.413 636.453,195.818 636.453,164.166 C 638.654,141.938 613.112,112.303 560.263,108.263 L 560.263,108.263 z M 596.558,164.599 C 596.558,175.903 577.244,185.051 553.569,185.051 C 527.369,185.051 509.89,174.702 509.437,164.357 C 508.97,154.251 529.2,143.182 556.791,144.627 C 584.369,146.071 597.705,156.657 596.558,164.599 L 596.558,164.599 z "
   style="fill:#0a55a3"
   id="path5" />
	<polygon
   points="414.723,108.774 453.805,108.774 453.805,220.666 414.723,220.666 414.723,108.774 414.723,108.774 "
   style="fill:#0a55a3"
   id="polygon7" />
	<polygon
   points="656.101,109.016 701.384,108.774 759.776,162.672 759.776,108.774 798.311,108.774 798.391,220.604 759.776,220.604 696.099,161.467 696.099,220.666 656.101,220.666 656.101,109.016 656.101,109.016 "
   style="fill:#0a55a3"
   id="polygon9" />
	<path
   d="M 800,73.646 C 796.555,65.705 792.874,57.764 789.425,50.063 C 565.522,-4.076 341.847,-25.971 116.794,44.53 C 73.12,58.728 -1.361,84.712 0.019,143.664 C 1.404,202.369 79.103,220.177 119.097,220.896 C 159.099,221.625 228.29,203.578 237.028,144.866 C 236.797,109.254 214.962,92.891 202.549,84.229 C 383.689,14.214 569.203,24.558 800,73.646 L 800,73.646 z M 119.33,170.133 C 95.879,170.133 60.938,160.507 60.711,140.537 C 60.48,120.084 96.11,110.699 118.867,110.699 C 141.395,110.699 176.568,120.323 176.799,140.537 C 177.026,160.265 142.778,169.891 119.33,170.133 L 119.33,170.133 z "
   style="fill:#0a55a3"
   id="path11" />
	<path
   d="M 355.442,108.645 C 321.014,108.645 286.58,108.645 252.151,108.645 L 252.151,220.47 L 295.067,220.79 L 295.067,201.578 L 318.149,201.578 L 340.644,220.79 L 388.885,220.79 L 364.021,201.275 C 408.398,179.948 399.943,119.444 355.442,108.645 L 355.442,108.645 z M 346.45,168.686 L 295.644,168.686 L 295.644,145.349 C 312.522,145.349 329.394,145.349 346.266,145.349 C 358.216,146.932 358.87,166.792 346.45,168.686 L 346.45,168.686 z "
   style="fill:#0a55a3"
   id="path13" />
</g>
</svg>