<?xml version="1.0" encoding="UTF-8"?><svg id="Black" xmlns="http://www.w3.org/2000/svg" viewBox="0 0 2672.24 1080"><defs><style>.cls-1{stroke-width:0px;}</style></defs><path class="cls-1" d="m1247.67,76.06h121.88v17.25h-102.71v103.1h88.15v17.25h-88.15v129.92h-19.16V76.06Zm145.17,19.16h21.46v27.59h-21.46v-27.59Zm1.53,66.69h18.4v181.66h-18.4v-181.66Zm127.96,11.5c-29.51,0-52.89,28.74-52.89,79.33v90.83h-18.4v-181.66h18.4v38.71c8.43-25.68,29.51-43.31,54.81-43.31,35.26,0,57.49,25.68,57.49,71.29v114.98h-18.4v-114.98c0-35.26-15.71-55.19-41.01-55.19Zm168.09,0c-29.51,0-52.89,28.74-52.89,79.33v90.83h-18.4v-181.66h18.4v38.71c8.43-25.68,29.51-43.31,54.81-43.31,35.26,0,57.49,25.68,57.49,71.29v114.98h-18.4v-114.98c0-35.26-15.71-55.19-41.01-55.19Zm94.93-78.18h21.46v27.59h-21.46v-27.59Zm1.53,66.69h18.4v181.66h-18.4v-181.66Zm45.49,119.19l18.01-1.92c2.3,31.81,19.93,52.89,46.76,52.89,21.85,0,38.33-13.03,38.33-35.26,0-53.66-96.58-25.68-96.58-88.92,0-31.81,23.76-50.59,54.81-50.59,32.58,0,54.42,20.7,56.72,52.12l-17.63,1.92c-1.15-22.23-16.1-37.94-39.09-37.94-20.7,0-36.41,13.03-36.41,32.96,0,48.29,96.58,21.46,96.58,89.3,0,34.49-24.14,52.51-56.34,52.51-37.56,0-62.85-26.06-65.15-67.07Zm221.1-107.69c-29.13,0-52.51,28.74-52.51,79.33v90.83h-18.4V76.06h18.4v124.56c8.43-25.68,29.89-43.31,54.42-43.31,35.64,0,57.87,25.68,57.87,70.9v115.36h-18.4v-115.36c0-34.88-15.71-54.81-41.39-54.81Zm-808.81,366.59c0-80.87,41.39-138.36,99.26-138.36,47.52,0,85.08,34.11,89.3,97.73l-19.55,3.83c-2.68-55.57-32.96-84.32-69.75-84.32-45.99,0-79.33,50.59-79.33,121.11s33.73,121.11,82.02,121.11c37.18,0,65.54-34.49,67.07-82.4l19.93,2.3c-3.07,57.11-37.56,97.35-87,97.35-60.17,0-101.95-57.49-101.95-138.35Zm276.7,122.26c29.51,0,52.89-28.74,52.89-79.33v-90.83h18.4v181.66h-18.4v-38.71c-8.43,25.68-29.51,43.31-54.81,43.31-35.26,0-57.49-25.68-57.49-71.29v-114.98h18.4v114.98c0,35.26,15.71,55.19,41.01,55.19Zm109.68-256.01h18.4v267.51h-18.4v-267.51Zm70.86,223.44v-122.26h-31.04v-15.33h31.04v-56.34h18.4v56.34h48.29v15.33h-48.29v120.34c0,23.38,8.43,34.49,22.61,34.49,6.52,0,15.71-3.07,21.46-13.41l6.13,16.1c-6.9,8.43-18.4,13.41-29.89,13.41-22.23,0-38.71-16.1-38.71-48.67Zm148.97,32.58c29.51,0,52.89-28.74,52.89-79.33v-90.83h18.4v181.66h-18.4v-38.71c-8.43,25.68-29.51,43.31-54.81,43.31-35.26,0-57.49-25.68-57.49-71.29v-114.98h18.4v114.98c0,35.26,15.71,55.19,41.01,55.19Zm109.76-170.17h18.4v32.96c8.05-25.68,27.21-37.56,42.92-37.56,5.75,0,14.18,1.53,19.93,6.13l-2.3,17.25c-5.75-4.22-12.65-6.13-18.78-6.13-9.96,0-41.78,6.9-41.78,70.14v98.88h-18.4v-181.66Zm197.14,141.04c-5.75,26.83-25.29,45.22-54.04,45.22-31.81,0-51.36-18.78-51.36-49.06,0-69.75,105.39-49.06,105.39-89.68,0-21.46-16.1-36.03-41.39-36.03-27.21,0-44.07,19.16-45.61,48.67l-18.4-1.92c3.83-37.94,27.98-62.85,63.62-62.85s60.17,23,60.17,55.96v85.47c0,9.58,1.53,36.79,7.28,44.84h-20.7c-3.45-8.05-4.6-28.74-4.98-40.62Zm-54.04,29.13c36.79,0,54.04-39.09,54.04-62.85v-34.88c-15.71,23-87,18.01-87,64.77,0,20.31,13.03,32.96,32.96,32.96Zm110.45-256.01h18.4v267.51h-18.4v-267.51Zm-966.53,330.18h121.88v17.25h-102.71v103.1h88.15v17.25h-88.15v129.92h-19.16v-267.51Zm131.11,176.68c0-56.72,28.74-95.43,70.52-95.43s70.9,39.09,70.9,95.43-28.74,95.43-70.9,95.43-70.52-38.71-70.52-95.43Zm123.02,0c0-48.67-22.23-79.33-52.51-79.33s-52.12,31.04-52.12,79.33,21.85,79.33,52.12,79.33,52.51-30.66,52.51-79.33Zm106.01,79.33c29.51,0,52.89-28.74,52.89-79.33v-90.83h18.4v181.66h-18.4v-38.71c-8.43,25.68-29.51,43.31-54.81,43.31-35.26,0-57.49-25.68-57.49-71.29v-114.98h18.4v114.98c0,35.26,15.71,55.19,41.01,55.19Zm181.05-158.67c-29.51,0-52.89,28.74-52.89,79.33v90.83h-18.4v-181.66h18.4v38.71c8.43-25.68,29.51-43.31,54.81-43.31,35.26,0,57.49,25.68,57.49,71.29v114.98h-18.4v-114.98c0-35.26-15.71-55.19-41.01-55.19Zm210.25,26.06v-123.41h18.4v267.51h-18.4v-37.56c-9.2,25.29-31.04,42.16-53.66,42.16-40.62,0-68.22-37.56-68.22-95.43s27.59-95.43,68.22-95.43c22.61,0,44.46,16.86,53.66,42.16Zm-51.36,132.61c29.89,0,51.36-29.89,51.36-79.33s-21.46-79.33-51.36-79.33c-31.43,0-52.12,30.66-52.12,79.33s20.7,79.33,52.12,79.33Zm206.42-29.13c-5.75,26.83-25.29,45.22-54.04,45.22-31.81,0-51.36-18.78-51.36-49.06,0-69.75,105.4-49.06,105.4-89.68,0-21.46-16.1-36.03-41.39-36.03-27.21,0-44.07,19.16-45.61,48.67l-18.4-1.92c3.83-37.94,27.98-62.85,63.62-62.85s60.17,23,60.17,55.96v85.47c0,9.58,1.53,36.79,7.28,44.84h-20.7c-3.45-8.05-4.6-28.74-4.98-40.62Zm-54.04,29.13c36.79,0,54.04-39.09,54.04-62.85v-34.88c-15.71,23-87,18.01-87,64.77,0,20.31,13.03,32.96,32.96,32.96Zm120.07-32.58v-122.26h-31.04v-15.33h31.04v-56.34h18.4v56.34h48.29v15.33h-48.29v120.34c0,23.38,8.43,34.49,22.61,34.49,6.52,0,15.71-3.07,21.46-13.41l6.13,16.1c-6.9,8.43-18.4,13.41-29.89,13.41-22.23,0-38.71-16.1-38.71-48.67Zm89.95-204.28h21.46v27.59h-21.46v-27.59Zm1.53,66.69h18.4v181.66h-18.4v-181.66Zm47.41,90.83c0-56.72,28.74-95.43,70.52-95.43s70.9,39.09,70.9,95.43-28.74,95.43-70.9,95.43-70.52-38.71-70.52-95.43Zm123.02,0c0-48.67-22.23-79.33-52.51-79.33s-52.12,31.04-52.12,79.33,21.85,79.33,52.12,79.33,52.51-30.66,52.51-79.33Zm119.92-79.33c-29.51,0-52.89,28.74-52.89,79.33v90.83h-18.4v-181.66h18.4v38.71c8.43-25.68,29.51-43.31,54.81-43.31,35.26,0,57.49,25.68,57.49,71.29v114.98h-18.4v-114.98c0-35.26-15.71-55.19-41.01-55.19Zm-2256.2-100.58l-3.93-1.91-10.56,21.73-22.18,1.92.38,4.36,19.58-1.7-13.96,28.71-22.18,1.92.38,4.36,19.58-1.7-15.71,32.32,3.93,1.91,15.71-32.32,10.76,16.44,3.66-2.39-12.19-18.63,13.96-28.71,10.76,16.44,3.66-2.39-12.19-18.63,10.56-21.73Zm-54.16-235.7l-17.85-8.37-1.86,3.96,15.49,7.26-23.14,15.61-17.85-8.37-1.86,3.96,15.49,7.26-26.21,17.68,2.45,3.63,26.21-17.68.93,17.08,4.37-.24-1.07-19.69,23.14-15.61.93,17.08,4.37-.24-1.07-19.69,17.75-11.97-2.45-3.63-17.75,11.97Zm-79.04-50.87l-13.14-21.96-3.75,2.25,11.8,19.71h-37.16s-13.14-21.94-13.14-21.94l-3.75,2.25,11.8,19.71-41.57.02v4.37s41.57-.02,41.57-.02l-11.79,19.73,3.75,2.24,13.13-21.97h37.16s-11.79,19.71-11.79,19.71l3.75,2.24,13.13-21.97h27.76s0-4.39,0-4.39h-27.76Zm23.86,276.49l-20.16-9.45-1.86,3.96,17.79,8.34-26.46,17.85-20.16-9.45-1.86,3.96,17.79,8.34-29.79,20.09,2.45,3.63,29.79-20.09,1.07,19.62,4.37-.24-1.21-22.23,26.46-17.85,1.07,19.62,4.37-.24-1.21-22.23,20.03-13.51-2.45-3.63-20.03,13.51Zm128.08-123.82l-4.37-.24-.93,17.08-23.14-15.61,1.07-19.69-4.37-.24-.93,17.08-26.21-17.68-2.45,3.63,26.21,17.68-15.48,7.26,1.86,3.96,17.85-8.37,23.14,15.61-15.49,7.26,1.86,3.96,17.85-8.37,17.75,11.97,2.45-3.63-17.75-11.97,1.07-19.69Zm-162.43,2.67l-4.36.28,1.59,24.56-35.35-18.15-1.76-27.17-4.36.28,1.59,24.56-39.44-20.25-2,3.89,39.44,20.25-20.89,13.02,2.31,3.71,23.11-14.4,35.35,18.16-20.89,13.02,2.31,3.71,23.11-14.4,26.26,13.49,2-3.89-26.26-13.49-1.76-27.17Zm267.68-100.7l-3.94-1.91-9.33,19.27-19.64,1.74.39,4.36,17.03-1.51-12.16,25.12-19.64,1.74.39,4.36,17.03-1.51-13.78,28.46,3.94,1.91,13.78-28.46,9.39,14.3,3.66-2.4-10.82-16.48,12.16-25.12,9.39,14.3,3.66-2.4-10.82-16.48,9.33-19.27Zm205.01-296.42l4.23,1.1,6.06-23.39,21.36-6.27-1.23-4.2-18.85,5.53,8.01-30.9,21.36-6.27-1.23-4.2-18.85,5.53,9.01-34.78-4.23-1.1-9.01,34.78-13.79-13.99-3.11,3.07,15.63,15.86-8.01,30.9-13.79-13.99-3.11,3.07,15.63,15.86-6.06,23.39Zm-412.27,116.4l-3.26-2.92-15.43,17.26-11.14-35.74,17.17-19.21-3.26-2.92-15.43,17.26-12.46-39.96-4.18,1.3,12.46,39.96-22.5-5.43-1.03,4.25,25.05,6.04,11.14,35.74-22.5-5.43-1.03,4.25,25.05,6.04,8.32,26.68,4.18-1.3-8.32-26.68,17.17-19.21Zm101.75-118.25l-4.36.28,1.59,24.56-35.35-18.16-1.76-27.17-4.36.28,1.59,24.56-39.44-20.26-2,3.89,39.44,20.26-20.89,13.02,2.31,3.71,23.11-14.4,35.35,18.16-20.89,13.02,2.31,3.71,23.11-14.4,26.26,13.49,2-3.89-26.26-13.49-1.76-27.17Zm23.07,127.06l-17.85-8.37-1.86,3.96,15.48,7.26-23.14,15.61-17.85-8.37-1.86,3.96,15.48,7.26-26.21,17.68,2.45,3.63,26.21-17.68.93,17.08,4.37-.24-1.07-19.69,23.14-15.61.93,17.08,4.37-.24-1.07-19.69,17.75-11.97-2.45-3.63-17.75,11.97Zm77.38-167.53l-13.79,13.99-8.01-30.9,15.63-15.86-3.11-3.07-13.79,13.99-9.01-34.78-4.23,1.1,9.01,34.78-18.85-5.53-1.23,4.2,21.36,6.27,8.01,30.9-18.85-5.53-1.23,4.2,21.36,6.27,6.06,23.39,4.23-1.1-6.06-23.39,15.63-15.86-3.11-3.07Zm304.31,71.53l23.11,14.4,2.31-3.71-20.89-13.02,35.35-18.16,23.11,14.4,2.31-3.71-20.89-13.02,39.44-20.26-2-3.89-39.44,20.26,1.59-24.56-4.36-.28-1.76,27.17-35.35,18.16,1.59-24.56-4.36-.28-1.76,27.17-26.26,13.49,2,3.89,26.26-13.49Zm68.88,286.74l4.37.24.93-17.08,23.14,15.61-1.07,19.69,4.37.24.93-17.08,26.21,17.68,2.45-3.63-26.21-17.68,15.49-7.26-1.86-3.96-17.85,8.37-23.14-15.61,15.49-7.26-1.86-3.96-17.85,8.37-17.75-11.97-2.45,3.63,17.75,11.97-1.07,19.69Zm-172.48,18.61l9.39-14.3,12.16,25.12-10.82,16.48,3.66,2.4,9.39-14.3,13.78,28.46,3.94-1.91-13.78-28.46,17.03,1.51.39-4.36-19.64-1.74-12.16-25.12,17.03,1.51.39-4.36-19.64-1.74-9.33-19.27-3.94,1.91,9.33,19.27-10.82,16.48,3.66,2.4Zm106.62,83.19l17.85,8.37,1.86-3.96-15.49-7.26,23.14-15.61,17.85,8.37,1.86-3.96-15.48-7.26,26.21-17.68-2.45-3.63-26.21,17.68-.93-17.08-4.37.24,1.07,19.69-23.14,15.61-.93-17.08-4.37.24,1.07,19.69-17.75,11.97,2.45,3.63,17.75-11.97ZM566.58,5C271.11,5,31.58,244.53,31.58,540s239.53,535,535,535,535-239.53,535-535S862.05,5,566.58,5Zm453.32,611.72c-3.86-.41-8.93-.55-6.39,14.05,2.11,12.16-9.57,17.04-18.73,12.72-7.82-3.68-12.34-2.98-10.88,9.86,1.49,13.07-12.98,20.54-24.42,9.68-6.77-6.42-12.89-2.94-12.81,4.82.09,8.4-11.17,13.87-21.74,8.1-6.31-3.45-20.66-12.98-30.43-19.58-9.78,6.05-29.7,16.97-48.8,24.07l25.47,18.45c8.51-4.31,19.26-9.7,24.31-11.67,9.26-3.62,17.91,2.04,16.95,8.91-.88,6.34,3.77,9.84,9.99,5.29,10.51-7.7,21.57-.06,18.98,10.49-2.54,10.36,1.09,11.41,7.88,9.22,7.95-2.57,17.01,2.64,14,12.38-3.61,11.69.56,12.11,3.76,12.18,3.2.07,9.22,5.06,4.59,11.87-6.36,9.34,2.95,11.1-1.61,17.9l-.04.07c-4.66,6.74-9.71-1.27-16.07,8.07-4.64,6.81-11.49,3.04-12.73.09-1.24-2.96-3.16-6.68-12.71.97-7.96,6.37-16.13-.14-16.66-8.49-.45-7.12-2.76-10.11-11.46-3.95-8.86,6.28-20.02-1.21-16.72-13.81,1.95-7.45-3.01-10.5-8.58-7.35-6.04,3.41-14.48-2.56-14.51-12.5-.01-5.2.9-16.72,1.71-26.01l-35.83-25.94c-14.96,3.92-31.64,6.97-45.27,8.89l11.22,24.52c9.47.53,21.28,1.25,26.58,2.06,9.83,1.5,14.47,10.74,10.2,16.21-3.94,5.05-1.67,10.4,5.99,9.58,12.95-1.39,18.7,10.76,11.17,18.59-7.39,7.69-4.78,10.42,2.2,11.92,8.17,1.76,13.4,10.81,5.91,17.73-8.98,8.31-5.59,10.76-2.85,12.42,2.74,1.67,5.44,9-1.98,12.57-10.18,4.9-3.01,11.08-10.37,14.69l-.07.03c-7.41,3.5-7.76-5.97-17.94-1.07-7.42,3.57-11.47-3.12-11.06-6.3.41-3.18.61-7.36-11.48-5.53-10.08,1.52-13.89-8.21-10.16-15.69,3.18-6.38,2.68-10.13-7.94-9.16-10.81.99-16.72-11.08-7.55-20.33,5.42-5.47,2.66-10.59-3.74-10.66-6.94-.08-11.25-9.47-6.29-18.09,2.63-4.56,9.3-14.24,14.7-21.92l-13.48-29.46c-17.85,1.98-35.78,3.24-53.72,4.4-2.59.15-5.19.3-7.78.45v27.83c12.91,2.39,22.69,13.7,22.69,27.3,0,15.34-55.55,15.34-55.55,0,0-13.6,9.78-24.91,22.69-27.3v-27.26c-17.16.93-35.33,2.1-52.95,2.1v116.41h.02c0,38.59,28.02,51.3,95.52,51.3h153.42c2.01,0,3.01,2.45,1.57,3.84-9.98,9.66-20.38,18.87-31.19,27.61-1.52,1.23-3.43,1.9-5.39,1.9h-155.92c-35.12,0-57.78-6.3-72.88-15.45,16.21,40.22,25.6,50.45,81.44,85.39,5.28,3.3,2.29,11.4-3.85,10.12-37.87-8.76-79.37-29.95-111.78-59.85-3.05,25.03-7.62,49.99-15.09,74.17-1.3,3.96-4.95,6.55-8.89,6.55s-7.59-2.59-8.89-6.55c-7.47-24.18-12.04-49.14-15.09-74.17-32.41,29.9-73.91,51.09-111.78,59.85-6.15,1.29-9.14-6.81-3.85-10.12,55.85-34.93,65.23-45.16,81.44-85.39-15.1,9.15-37.76,15.45-72.88,15.45h-155.92c-1.96,0-3.87-.67-5.39-1.9-10.8-8.74-21.21-17.95-31.19-27.61-1.44-1.4-.44-3.84,1.57-3.84h153.42c67.5,0,95.52-12.71,95.52-51.3h.02s0-116.41,0-116.41c-17.62,0-35.79-1.17-52.95-2.1v27.26c12.91,2.39,22.69,13.7,22.69,27.3,0,15.34-55.55,15.34-55.55,0,0-13.6,9.78-24.91,22.69-27.3v-27.83c-2.59-.15-5.19-.3-7.78-.45-17.94-1.16-35.87-2.42-53.72-4.4l-13.48,29.46c5.4,7.68,12.08,17.36,14.7,21.92,4.96,8.61.65,18.01-6.29,18.09-6.4.07-9.17,5.19-3.74,10.66,9.17,9.25,3.27,21.32-7.55,20.33-10.62-.97-11.12,2.78-7.94,9.16,3.73,7.48-.08,17.21-10.16,15.69-12.09-1.83-11.89,2.35-11.48,5.53.41,3.18-3.63,9.87-11.06,6.3-10.18-4.9-10.54,4.57-17.94,1.07l-.07-.03c-7.36-3.6-.19-9.79-10.37-14.69-7.42-3.57-4.72-10.91-1.98-12.57,2.74-1.66,6.13-4.12-2.85-12.42-7.48-6.92-2.26-15.97,5.91-17.73,6.97-1.5,9.59-4.23,2.2-11.92-7.52-7.83-1.78-19.98,11.17-18.59,7.66.82,9.93-4.53,5.99-9.58-4.27-5.47.38-14.7,10.2-16.21,5.31-.81,17.11-1.53,26.58-2.06l11.22-24.52c-13.63-1.92-30.31-4.96-45.27-8.89l-35.83,25.94c.82,9.29,1.72,20.82,1.71,26.01-.02,9.94-8.46,15.91-14.51,12.5-5.58-3.15-10.53-.1-8.58,7.35,3.3,12.6-7.86,20.09-16.72,13.81-8.71-6.17-11.02-3.17-11.46,3.95-.52,8.34-8.7,14.85-16.66,8.49-9.55-7.64-11.47-3.92-12.71-.97-1.24,2.96-8.09,6.72-12.73-.09-6.36-9.34-11.41-1.33-16.07-8.07l-.04-.07c-4.56-6.8,4.75-8.56-1.61-17.9-4.64-6.81,1.38-11.8,4.59-11.87,3.2-.07,7.37-.49,3.76-12.18-3.01-9.74,6.05-14.96,14-12.38,6.79,2.2,10.42,1.14,7.88-9.22-2.59-10.54,8.47-18.18,18.98-10.49,6.21,4.55,10.87,1.05,9.99-5.29-.96-6.87,7.7-12.53,16.95-8.91,5.05,1.98,15.8,7.37,24.31,11.67l25.47-18.45c-19.1-7.1-39.02-18.02-48.8-24.07-9.77,6.59-24.13,16.13-30.43,19.58-10.56,5.78-21.83.31-21.74-8.1.08-7.75-6.04-11.24-12.81-4.82-11.45,10.86-25.91,3.39-24.42-9.68,1.46-12.84-3.06-13.54-10.88-9.86-9.16,4.32-20.84-.56-18.73-12.72,2.53-14.6-2.53-14.46-6.39-14.05-3.86.41-11.86-4.66-7.34-13.56,6.2-12.2-5.25-12.88-.82-21.76l.04-.09c4.56-8.81,11.86.04,18.06-12.16,4.52-8.9,13.33-5.43,15.28-2.06,1.94,3.36,4.82,7.53,15.12-3.12,8.58-8.88,19.4-2.31,21.32,7.63,1.63,8.48,4.87,11.73,14.38,2.98,9.68-8.9,24.24-1.63,22.21,14.02-1.2,9.25,5.23,12.15,11.44,7.51,6.73-5.02,17.79.85,19.35,12.79.95,7.28,1.54,24.57,1.93,36.51,2.51.88,35.19,16.91,125.45,16.91h38.18l-25.54-18.32c-7.4,3.75-16.34,8.2-20.65,9.89-8.25,3.23-15.97-1.82-15.11-7.94.79-5.65-3.36-8.77-8.9-4.71-9.37,6.86-19.23.05-16.93-9.35,2.27-9.24-.97-10.18-7.02-8.22-7.09,2.29-15.17-2.36-12.49-11.04,3.22-10.42-.5-10.8-3.35-10.86-2.86-.06-8.22-4.51-4.09-10.59,5.67-8.33-2.63-9.9,1.44-15.96l.04-.06c4.15-6.01,8.66,1.14,14.32-7.19,4.13-6.07,10.24-2.71,11.35-.08,1.1,2.64,2.82,5.95,11.33-.86,7.1-5.68,14.38.13,14.85,7.57.4,6.35,2.46,9.02,10.22,3.52,7.9-5.6,17.85,1.08,14.91,12.32-1.74,6.64,2.68,9.36,7.65,6.55,5.39-3.04,12.91,2.28,12.93,11.15.01,4.48-.74,14.21-1.45,22.34l44.41,31.86h77.29v-189.75h-26.72l-9.64,21.04c5,7.06,12,17.09,14.59,21.56,4.44,7.67.61,16.06-5.58,16.14-5.71.07-8.17,4.64-3.32,9.51,8.19,8.23,2.94,19.01-6.7,18.14-9.47-.85-9.91,2.49-7.07,8.18,3.34,6.67-.05,15.35-9.04,14-10.79-1.61-10.6,2.12-10.23,4.95.37,2.83-3.23,8.81-9.85,5.64-9.08-4.35-9.39,4.09-16,.98l-.06-.03c-6.57-3.2-.18-8.73-9.26-13.08-6.63-3.17-4.22-9.72-1.78-11.21,2.44-1.49,5.46-3.68-2.56-11.07-6.68-6.16-2.04-14.24,5.25-15.82,6.21-1.35,8.54-3.79,1.94-10.63-6.72-6.97-1.62-17.81,9.93-16.59,6.83.72,8.85-4.06,5.33-8.55-3.82-4.87.32-13.11,9.07-14.46,5.2-.8,17.41-1.52,26.15-2.02l7.65-16.68c-25.91,0-53.72-.66-82.9-3.56l-4.64,15.47c11.78,5.98,17.94,19.7,13.99,32.79-4.44,14.68-57.61-1.4-53.17-16.08,3.92-12.95,16.45-20.94,29.43-19.59l4.07-13.55c-.39-.04-15.98-1.86-23.61-2.98l-36.36,24.5c.71,8.14,1.47,17.91,1.46,22.4-.02,8.86-7.55,14.19-12.93,11.15-4.97-2.8-9.39-.09-7.65,6.55,2.95,11.24-7.01,17.91-14.91,12.32-7.76-5.5-9.82-2.83-10.22,3.52-.47,7.44-7.75,13.24-14.85,7.57-8.52-6.81-10.23-3.5-11.33-.86-1.1,2.64-7.22,5.99-11.35-.08-5.67-8.33-10.17-1.18-14.32-7.19l-.04-.06c-4.07-6.07,4.23-7.64-1.44-15.96-4.13-6.07,1.23-10.53,4.09-10.59,2.86-.06,6.57-.44,3.35-10.86-2.68-8.68,5.39-13.33,12.49-11.04,6.05,1.96,9.29,1.02,7.02-8.22-2.31-9.4,7.55-16.21,16.93-9.35,5.54,4.06,9.69.94,8.9-4.72-.85-6.13,6.86-11.18,15.11-7.94,4.29,1.68,13.2,6.12,20.6,9.86l22.49-15.16c-5.09-1.14-10.13-2.45-15.08-3.98-27.09,0-53.37,0-67.71,0-5.27,9.31-12.28,21.25-15.79,26.47-6.37,9.48-18.24,9.79-21.84,2.68-3.32-6.56-10-6.82-12.89,1.54-4.89,14.15-20.34,14.17-24.79,2.52-4.38-11.45-8.5-10.07-13.47-3.55-5.83,7.63-17.79,8.63-21.33-2.53-4.24-13.4-8.45-11.07-11.52-9.04-3.07,2.03-12.02,1.25-12.1-8.21-.11-12.98-10.05-8.55-10.19-17.96v-.09c-.01-9.41,10-5.15,9.89-18.13-.08-9.46,8.86-10.39,11.96-8.41,3.1,1.98,7.35,4.24,11.37-9.23,3.35-11.22,15.33-10.42,21.28-2.88,5.08,6.43,9.22,7.75,13.41-3.77,4.26-11.72,19.7-11.96,24.83,2.11,3.03,8.31,9.71,7.95,12.91,1.33,3.48-7.17,15.35-7.06,21.88,2.32,3.68,5.29,10.86,18.59,16.31,28.59,8.09,0,19.17,0,33.27,0-24.69-17.7-30.17-38.3-37.44-58.94-10.86-2.22-25.67-5.37-31.88-7.25-10.93-3.31-14.72-14.56-8.97-20.09,5.3-5.1,3.58-11.56-5.26-11.87-14.96-.52-19.52-15.28-9.69-22.96,9.66-7.55,7.13-11.08-.56-13.92-9.01-3.33-13.48-14.47-3.84-21.13,11.56-7.99,8.1-11.33,5.26-13.67-2.84-2.34-4.73-11.12,4.29-13.98,12.38-3.92,5.22-12.12,14.18-15.02l.09-.03c8.99-2.78,7.86,8.05,20.24,4.13,9.02-2.86,12.54,5.41,11.55,8.96-.98,3.55-1.89,8.27,12.16,8.16,11.71-.09,14.46,11.59,9.01,19.5-4.65,6.74-4.7,11.09,7.55,11.71,12.46.63,17.22,15.32,5.28,24.35-7.06,5.34-4.74,11.61,2.53,12.73,7.88,1.22,11.26,12.6,4.21,21.59-4.23,5.41-15.3,17.06-23.1,25.25,24.13,51.32,54.35,51.59,107.22,51.59h163.99l-.04-45.21c0-6.77-2.19-14.03-5.23-20.08-9.34-18.6-27.97-35.24-42.6-47.28l-4.85,16.18c11.63,6.04,17.69,19.67,13.76,32.67-4.44,14.68-57.61-1.4-53.17-16.08,3.94-13.04,16.61-21.04,29.69-19.56l5.99-19.97c-6.54-4.98-13.24-9.75-20.04-14.38l-38.41,25.96c.71,8.16,1.48,17.98,1.46,22.49-.02,8.86-7.55,14.19-12.93,11.15-4.97-2.8-9.39-.09-7.65,6.55,2.95,11.24-7.01,17.91-14.91,12.32-7.76-5.5-9.82-2.83-10.22,3.52-.47,7.44-7.75,13.24-14.85,7.57-8.52-6.81-10.23-3.5-11.33-.86s-7.22,5.99-11.35-.08c-5.67-8.33-10.17-1.18-14.32-7.19l-.04-.06c-4.07-6.07,4.23-7.64-1.44-15.96-4.13-6.07,1.23-10.53,4.09-10.59,2.86-.06,6.57-.44,3.35-10.86-2.68-8.68,5.39-13.33,12.49-11.04,6.05,1.96,9.29,1.02,7.02-8.22-2.31-9.4,7.55-16.21,16.93-9.35,5.54,4.06,9.69.94,8.9-4.72-.85-6.13,6.86-11.18,15.11-7.94,4.28,1.68,13.14,6.09,20.52,9.83l32.9-22.24c-14.55-9.43-28.57-17.62-42.97-27.26-9.58,6.44-22.15,14.73-27.94,17.9-10.56,5.78-21.83.31-21.74-8.1.08-7.75-6.04-11.24-12.81-4.82-11.44,10.86-25.91,3.39-24.42-9.68,1.46-12.84-3.06-13.54-10.88-9.86-9.16,4.32-20.84-.56-18.73-12.72,2.53-14.6-2.53-14.46-6.39-14.05-3.86.41-11.86-4.66-7.34-13.56,6.2-12.2-5.25-12.88-.82-21.76l.04-.08c4.56-8.81,11.86.04,18.06-12.16,4.52-8.9,13.34-5.42,15.28-2.06,1.94,3.36,4.82,7.53,15.12-3.12,8.58-8.88,19.4-2.31,21.32,7.63,1.63,8.48,4.87,11.73,14.38,2.98,9.68-8.9,24.24-1.63,22.21,14.02-1.2,9.25,5.23,12.15,11.44,7.51,6.73-5.03,17.79.85,19.35,12.79.89,6.8,1.46,22.36,1.85,34.11,16.07,6.11,35.65,12.89,57.21,21.97l-13.19-49.21c-9.05-2.33-20.29-5.34-25.21-7.09-9.36-3.34-12.18-13.28-6.95-17.84,4.82-4.21,3.61-9.9-4.07-10.54-12.98-1.09-16.32-14.11-7.45-20.37,8.72-6.15,6.66-9.33.1-12.12-7.69-3.27-11.11-13.15-2.45-18.53,10.39-6.46,7.52-9.51,5.15-11.66-2.37-2.15-3.64-9.87,4.33-11.97,10.92-2.88,5.05-10.31,12.96-12.46l.08-.02c7.94-2.03,6.49,7.33,17.42,4.45,7.97-2.1,10.67,5.24,9.67,8.28-1,3.04-2,7.11,10.23,7.61,10.19.41,12.08,10.69,7.01,17.33-4.33,5.67-4.55,9.44,6.06,10.5,10.8,1.07,14.32,14.05,3.56,21.39-6.36,4.34-4.62,9.89,1.66,11.18,6.8,1.39,9.25,11.43,2.75,18.95-3.54,4.09-12.15,12.38-19.04,18.96l16.74,62.21c22.57,11.12,45.43,24.72,63.36,42.21.82-6.87,1.73-13.72,2.78-20.55-1.8-3.25-3.85-6.33-5.9-9.05-7.49-9.81-17.02-18.52-27.94-24.63-2.41-1.29-.99-5,1.67-4.37,12.81,3.3,25.12,9.11,35.82,17.1,2.03-10.3,4.45-17.82,7.25-27.97-11.52-6.39-27.62-15.71-34.39-20.21-11.47-7.63-11.92-21.95-3.36-26.32,7.9-4.04,8.17-12.1-1.94-15.54-17.09-5.82-17.21-24.44-3.18-29.88,13.78-5.35,12.09-10.31,4.2-16.27-9.24-6.98-10.52-21.41,2.93-25.74,16.13-5.2,13.3-10.26,10.83-13.95-2.47-3.69-1.58-14.49,9.83-14.64,15.65-.21,10.28-12.4,21.62-12.4s5.96,12.19,21.62,12.4c11.41.15,12.3,10.95,9.83,14.64-2.47,3.69-5.3,8.75,10.83,13.95,13.45,4.33,12.17,18.75,2.93,25.74-7.89,5.96-9.58,10.92,4.2,16.27,14.03,5.44,13.91,24.07-3.18,29.88-10.1,3.44-9.83,11.5-1.94,15.54,8.56,4.38,8.11,18.7-3.36,26.32-6.77,4.5-22.87,13.82-34.39,20.21,2.81,10.15,5.22,17.67,7.25,27.97,10.71-8,23.01-13.81,35.82-17.1,2.65-.62,4.07,3.08,1.67,4.37-10.92,6.11-20.45,14.82-27.94,24.63-2.05,2.72-4.11,5.8-5.9,9.05,1.05,6.83,1.96,13.68,2.78,20.55,17.93-17.49,40.79-31.09,63.36-42.21l16.74-62.21c-6.89-6.57-15.5-14.87-19.04-18.96-6.5-7.52-4.05-17.56,2.75-18.95,6.27-1.28,8.02-6.83,1.66-11.18-10.76-7.35-7.24-20.32,3.56-21.39,10.62-1.06,10.4-4.83,6.06-10.5-5.08-6.64-3.18-16.92,7.01-17.33,12.22-.5,11.23-4.56,10.23-7.61-1-3.04,1.7-10.38,9.67-8.28,10.92,2.88,9.48-6.48,17.42-4.45l.08.02c7.91,2.14,2.04,9.58,12.96,12.46,7.97,2.1,6.7,9.82,4.33,11.97-2.37,2.15-5.24,5.2,5.15,11.66,8.66,5.38,5.24,15.26-2.45,18.53-6.56,2.79-8.62,5.97.1,12.12,8.87,6.26,5.53,19.28-7.45,20.37-7.68.64-8.89,6.33-4.07,10.54,5.23,4.56,2.41,14.51-6.95,17.84-4.92,1.75-16.16,4.76-25.21,7.09l-13.19,49.21c21.56-9.08,41.15-15.86,57.21-21.97.4-11.75.97-27.31,1.85-34.11,1.56-11.94,12.62-17.81,19.35-12.79,6.21,4.64,12.64,1.74,11.44-7.51-2.03-15.65,12.53-22.93,22.21-14.02,9.51,8.75,12.75,5.51,14.38-2.98,1.91-9.94,12.73-16.51,21.32-7.63,10.3,10.65,13.18,6.48,15.12,3.12,1.94-3.36,10.76-6.83,15.28,2.06,6.2,12.2,13.5,3.35,18.06,12.16l.04.08c4.43,8.88-7.02,9.56-.82,21.76,4.52,8.9-3.48,13.97-7.34,13.56-3.86-.41-8.93-.55-6.39,14.05,2.11,12.17-9.57,17.04-18.73,12.72-7.82-3.68-12.34-2.98-10.88,9.86,1.49,13.07-12.98,20.54-24.42,9.68-6.77-6.42-12.89-2.94-12.81,4.82.09,8.4-11.17,13.87-21.74,8.1-5.79-3.17-18.36-11.46-27.94-17.9-14.4,9.64-28.42,17.83-42.97,27.26l32.9,22.24c7.38-3.73,16.24-8.15,20.52-9.83,8.25-3.23,15.97,1.82,15.11,7.94-.79,5.65,3.36,8.77,8.9,4.72,9.37-6.86,19.23-.05,16.93,9.35-2.27,9.24.97,10.18,7.02,8.22,7.09-2.29,15.17,2.36,12.49,11.04-3.22,10.42.5,10.8,3.35,10.86,2.86.06,8.22,4.51,4.09,10.59-5.67,8.33,2.63,9.9-1.44,15.96l-.04.06c-4.15,6.01-8.66-1.14-14.32,7.19-4.13,6.07-10.24,2.71-11.35.08-1.1-2.64-2.82-5.95-11.33.86-7.1,5.68-14.38-.13-14.85-7.57-.4-6.35-2.46-9.02-10.22-3.52-7.9,5.6-17.85-1.08-14.91-12.32,1.74-6.64-2.68-9.36-7.65-6.55-5.39,3.04-12.91-2.28-12.93-11.15-.01-4.5.75-14.33,1.46-22.49l-38.41-25.96c-6.81,4.63-13.51,9.39-20.04,14.38l5.99,19.97c13.07-1.48,25.74,6.52,29.69,19.56,4.44,14.68-48.73,30.76-53.17,16.08-3.93-13,2.13-26.63,13.76-32.67l-4.85-16.18c-14.63,12.04-33.26,28.68-42.6,47.28-3.04,6.05-5.23,13.31-5.23,20.08l-.04,45.21h163.99c52.87,0,83.09-.27,107.22-51.59-7.8-8.19-18.87-19.84-23.1-25.25-7.04-8.99-3.66-20.38,4.21-21.59,7.27-1.12,9.58-7.4,2.53-12.73-11.94-9.03-7.18-23.72,5.28-24.35,12.24-.62,12.2-4.96,7.55-11.71-5.46-7.9-2.7-19.59,9.01-19.5,14.05.11,13.14-4.61,12.16-8.16-.98-3.55,2.53-11.82,11.55-8.96,12.37,3.92,11.24-6.91,20.24-4.13l.09.03c8.95,2.9,1.8,11.1,14.18,15.02,9.02,2.86,7.14,11.64,4.29,13.98-2.85,2.34-6.31,5.68,5.26,13.67,9.63,6.66,5.17,17.8-3.84,21.13-7.69,2.84-10.22,6.37-.56,13.92,9.83,7.68,5.27,22.44-9.69,22.96-8.84.31-10.56,6.77-5.26,11.87,5.75,5.53,1.96,16.78-8.97,20.09-6.22,1.88-21.02,5.03-31.88,7.25-7.27,20.64-12.75,41.24-37.44,58.94,14.1,0,25.18,0,33.27,0,5.45-10,12.63-23.3,16.31-28.59,6.53-9.37,18.4-9.49,21.88-2.32,3.21,6.62,9.88,6.99,12.91-1.33,5.12-14.06,20.57-13.83,24.83-2.11,4.19,11.52,8.33,10.2,13.41,3.77,5.95-7.54,17.93-8.34,21.28,2.88,4.02,13.47,8.27,11.21,11.37,9.23,3.1-1.98,12.04-1.05,11.96,8.41-.11,12.98,9.91,8.72,9.89,18.13v.09c-.14,9.41-10.09,4.98-10.19,17.96-.08,9.47-9.03,10.25-12.1,8.21-3.07-2.03-7.28-4.36-11.52,9.04-3.53,11.17-15.5,10.17-21.33,2.53-4.97-6.51-9.09-7.9-13.47,3.55-4.45,11.65-19.9,11.63-24.79-2.52-2.89-8.36-9.57-8.1-12.89-1.54-3.59,7.11-15.47,6.8-21.84-2.68-3.51-5.22-10.52-17.16-15.79-26.47-14.33,0-40.62,0-67.71,0-4.95,1.52-10,2.84-15.08,3.98l22.49,15.16c7.39-3.74,16.3-8.18,20.6-9.86,8.25-3.23,15.97,1.82,15.11,7.94-.79,5.65,3.36,8.77,8.9,4.72,9.37-6.86,19.23-.05,16.93,9.35-2.27,9.24.97,10.18,7.02,8.22,7.09-2.29,15.17,2.36,12.49,11.04-3.22,10.42.5,10.8,3.35,10.86,2.86.06,8.22,4.51,4.09,10.59-5.67,8.33,2.63,9.9-1.44,15.96l-.04.06c-4.15,6.01-8.66-1.14-14.32,7.19-4.13,6.07-10.24,2.71-11.35.08-1.1-2.64-2.82-5.95-11.33.86-7.1,5.68-14.38-.13-14.85-7.57-.4-6.35-2.46-9.02-10.22-3.52-7.9,5.6-17.85-1.08-14.91-12.32,1.74-6.64-2.68-9.36-7.65-6.55-5.39,3.04-12.91-2.28-12.93-11.15-.01-4.49.75-14.26,1.46-22.4l-36.36-24.5c-7.63,1.12-23.22,2.94-23.61,2.98l4.07,13.55c12.98-1.35,25.51,6.63,29.43,19.59,4.44,14.68-48.73,30.76-53.17,16.08-3.96-13.08,2.21-26.81,13.99-32.79l-4.64-15.47c-29.17,2.9-56.99,3.56-82.9,3.56l7.65,16.68c8.74.5,20.95,1.22,26.15,2.02,8.76,1.35,12.89,9.6,9.07,14.46-3.52,4.49-1.5,9.27,5.33,8.55,11.55-1.22,16.65,9.62,9.93,16.59-6.6,6.85-4.27,9.29,1.94,10.63,7.28,1.58,11.93,9.66,5.25,15.82-8.02,7.39-5,9.58-2.56,11.07,2.44,1.49,4.84,8.04-1.78,11.21-9.08,4.35-2.7,9.88-9.26,13.08l-.06.03c-6.61,3.11-6.91-5.33-16-.98-6.63,3.17-10.22-2.8-9.85-5.64.37-2.83.56-6.56-10.23-4.95-8.99,1.34-12.37-7.34-9.04-14,2.85-5.69,2.41-9.03-7.07-8.18-9.64.87-14.89-9.91-6.7-18.14,4.84-4.87,2.39-9.44-3.32-9.51-6.19-.08-10.02-8.46-5.58-16.14,2.59-4.48,9.58-14.5,14.59-21.56l-9.64-21.04h-26.72v189.75h77.29l44.41-31.86c-.71-8.12-1.46-17.86-1.45-22.34.02-8.86,7.55-14.19,12.93-11.15,4.97,2.8,9.39.09,7.65-6.55-2.95-11.24,7.01-17.91,14.91-12.32,7.76,5.5,9.82,2.83,10.22-3.52.47-7.44,7.75-13.24,14.85-7.57,8.52,6.81,10.23,3.5,11.33.86,1.1-2.64,7.22-5.99,11.35.08,5.67,8.33,10.17,1.18,14.32,7.19l.04.06c4.07,6.07-4.23,7.64,1.44,15.96,4.13,6.07-1.23,10.53-4.09,10.59-2.86.06-6.57.44-3.35,10.86,2.68,8.68-5.39,13.33-12.49,11.04-6.05-1.96-9.29-1.02-7.02,8.22,2.31,9.4-7.55,16.21-16.93,9.35-5.54-4.06-9.69-.94-8.9,4.71.85,6.13-6.86,11.18-15.11,7.94-4.3-1.68-13.24-6.14-20.65-9.89l-25.54,18.32h38.18c90.27,0,122.94-16.03,125.45-16.91.4-11.94.98-29.24,1.93-36.51,1.56-11.94,12.62-17.81,19.35-12.79,6.21,4.64,12.64,1.74,11.44-7.51-2.03-15.65,12.53-22.93,22.21-14.02,9.51,8.75,12.75,5.51,14.38-2.98,1.91-9.94,12.73-16.51,21.32-7.63,10.3,10.65,13.18,6.48,15.12,3.12,1.94-3.36,10.76-6.83,15.28,2.06,6.2,12.2,13.5,3.35,18.06,12.16l.04.09c4.43,8.88-7.02,9.56-.82,21.76,4.52,8.9-3.48,13.97-7.34,13.56Zm-301.17,155.37c-.38,11.91-9.31,30.21-20.72,30.46-11.83.26-21.84-18.97-22.1-30.79,0-.02,0-.04,0-.05,10.81,4.64,30.56,4.65,42.82.39Zm-304.3,0c12.26,4.26,32.01,4.25,42.82-.39,0,.02,0,.04,0,.05-.26,11.83-10.27,31.05-22.1,30.79-11.41-.25-20.34-18.55-20.72-30.46Zm-63.89-255.05c10.53,7.58,29.47,13.21,41.15,11.84,0,.02,0,.03-.01.05-3.62,11.26-18.7,26.83-29.96,23.21-10.87-3.49-14.21-23.58-11.17-35.1Zm91.7-150.84c10.66,7.4,29.69,12.69,41.35,11.12,0,.02,0,.03-.01.05-3.42,11.32-18.23,27.15-29.55,23.73-10.93-3.3-14.62-23.33-11.79-34.9Zm236.9,34.9c-11.32,3.42-26.13-12.41-29.55-23.73,0-.02,0-.03-.01-.05,11.66,1.57,30.69-3.72,41.35-11.12,2.83,11.57-.86,31.6-11.79,34.9Zm92.31,151.04c-11.26,3.62-26.34-11.95-29.96-23.21,0-.02,0-.03-.01-.05,11.68,1.37,30.62-4.26,41.15-11.84,3.03,11.52-.31,31.61-11.17,35.1Zm162.2-79.16l3.75-2.24-11.79-19.73h37.16s13.13,21.98,13.13,21.98l3.75-2.24-11.79-19.73,41.57.02v-4.37s-41.56-.02-41.56-.02l11.8-19.71-3.75-2.25-13.14,21.96h-37.16s11.8-19.73,11.8-19.73l-3.75-2.25-13.14,21.96h-27.76s0,4.36,0,4.36h27.76s13.13,21.98,13.13,21.98Zm-54.21-105.84l4.18,1.3,8.32-26.68,25.05-6.04-1.03-4.25-22.5,5.43,11.14-35.74,25.05-6.04-1.03-4.25-22.5,5.43,12.46-39.96-4.18-1.3-12.46,39.96-15.43-17.26-3.26,2.92,17.17,19.21-11.14,35.74-15.43-17.26-3.26,2.92,17.17,19.21-8.32,26.68Zm-90.08,408.82l10.76-16.44,13.96,28.71-12.19,18.63,3.66,2.39,10.76-16.44,15.71,32.32,3.93-1.91-15.71-32.32,19.58,1.7.38-4.36-22.18-1.92-13.96-28.71,19.57,1.7.38-4.36-22.18-1.92-10.56-21.73-3.93,1.91,10.56,21.73-12.19,18.63,3.66,2.39Zm-193.75-594.07l-2.24-3.75-24.6,14.71v-46.23s.05.09.05.09l26.79-16.02-2.24-3.75-24.6,14.71v-51.19h-4.38v51.19s-24.6-14.71-24.6-14.71l-2.24,3.75,26.79,16.02.05-.09v46.23s-24.6-14.71-24.6-14.71l-2.24,3.75,26.79,16.02.05-.09v34.02h4.38v-34.02s.05.09.05.09l26.79-16.02Zm297.4,567.09l4.37.24,1.07-19.62,26.46,17.85-1.21,22.23,4.37.24,1.07-19.62,29.79,20.09,2.45-3.63-29.79-20.09,17.79-8.34-1.86-3.96-20.16,9.45-26.46-17.85,17.79-8.34-1.86-3.96-20.16,9.45-20.03-13.51-2.45,3.63,20.03,13.51-1.21,22.23Zm-150.76-395.59l4.37.24.93-17.08,23.14,15.61-1.07,19.69,4.37.24.93-17.08,26.21,17.68,2.45-3.63-26.21-17.68,15.48-7.26-1.86-3.96-17.85,8.37-23.14-15.61,15.48-7.26-1.86-3.96-17.85,8.37-17.75-11.97-2.45,3.63,17.75,11.97-1.07,19.69Zm231.42,252.95l1.59-24.56-4.36-.28-1.76,27.17-35.35,18.15,1.59-24.56-4.36-.28-1.76,27.17-26.26,13.49,2,3.89,26.26-13.49,23.11,14.4,2.31-3.71-20.89-13.02,35.35-18.16,23.11,14.4,2.31-3.71-20.89-13.02,39.44-20.25-2-3.89-39.44,20.25Z"/></svg>