<?xml version="1.0" encoding="utf-8"?>
<!-- Generator: Adobe Illustrator 19.1.0, SVG Export Plug-In . SVG Version: 6.00 Build 0)  -->
<svg version="1.1" id="Layer_1" xmlns="http://www.w3.org/2000/svg" xmlns:xlink="http://www.w3.org/1999/xlink" x="0px" y="0px"
	 viewBox="0 0 187.2 185.8" style="enable-background:new 0 0 187.2 185.8;" xml:space="preserve">
<style type="text/css">
	.st0{fill:#007C92;}
</style>
<path class="st0" d="M91.6,177.1l2.2,2.2l-2.2,2.2l-2.2-2.2L91.6,177.1z M111.9,185.3l-2.5-10.5l0.4-0.1l8,9.2l3.2-0.7l-3.3-13.9
	l-2.1,0.5l2.5,10.5l-0.4,0.1l-8-9.2l-3.2,0.7l3.3,13.9L111.9,185.3z M135.7,169c-1.2-2.5-3.4-4.1-6.1-2.9c-2.6,1.3-2.7,4-1.5,6.5
	c1.2,2.5,3.4,4.1,6.1,2.9C136.9,174.3,137,171.6,135.7,169 M135.2,177.5c-3.8,1.9-7.3-0.1-9.1-3.8c-1.8-3.7-1.2-7.7,2.6-9.5
	c3.8-1.9,7.3,0,9.1,3.8C139.7,171.8,139,175.7,135.2,177.5 M149.5,168.5l-8.3-11.6l-1.9,1.3l8.3,11.6L149.5,168.5z M153.6,162.6
	l3.2-3l-8.4-8.8l1.7-1.6l8.4,8.8l3.2-3.1l1.5,1.5l-8,7.7L153.6,162.6z M168.6,145.4l-0.5,0.7l-5.7-1.9l2.5-3.5L168.6,145.4z
	 M171.3,145.6l-9.1-12l-1.3,1.9l2.6,3.4l-3.2,4.6l-4.1-1.3l-1.4,1.9l14.3,4.5L171.3,145.6z M169.9,122.3l-1.2,2.7
	c-1.3,2.8,0.3,4.7,2.8,5.9c2.5,1.1,5,1,6.2-1.8l1.2-2.7L169.9,122.3z M179.7,130.1c-1.7,3.8-5.2,4.6-9.1,2.9
	c-3.9-1.7-5.7-4.9-3.9-8.7l2.2-5l13,5.8L179.7,130.1z M184.9,113.9l-10.6-2.1l0.1-0.5l11.7-3.4l0.6-3.2l-14-2.8l-0.4,2.1l10.6,2.1
	l-0.1,0.5l-11.7,3.4l-0.6,3.2l14,2.8L184.9,113.9z M187.2,95.3l-9.1,0.3c-3.5,0.1-5.5-1.8-5.6-5.4c-0.1-3.6,1.8-5.6,5.3-5.7l9.1-0.3
	l0.1,2.3l-9,0.3c-2,0.1-3.3,1.2-3.2,3.4c0.1,2.2,1.4,3.2,3.4,3.2l9-0.3L187.2,95.3z M178,75c-2.7,0.7-5.4,0.1-6.1-2.7
	c-0.7-2.8,1.3-4.7,4-5.4c2.7-0.7,5.4-0.1,6.1,2.7C182.7,72.4,180.7,74.3,178,75 M184.1,69c-1.1-4.1-4.8-5.5-8.8-4.5
	c-4,1.1-6.6,4.1-5.5,8.2c1.1,4.1,4.8,5.5,8.8,4.4C182.6,76.2,185.2,73.2,184.1,69 M174.1,50.3l-3.5,1.7l2.7,5.4l-1.9,0.9l-2.7-5.4
	l-5.4,2.7l-1-2.1l12.8-6.3l4.3,8.9l-2,1L174.1,50.3z M165.1,33.4l-11.2,8.9l1.4,1.8l11.2-8.9L165.1,33.4z M154.5,25.6l-2.7-2.4
	l-2.9,3.3l2.7,2.4c1.4,1.3,2.5,1.1,3.4,0.1C155.9,27.9,155.9,26.8,154.5,25.6 M156.7,30.5c-1.2,1.3-2.6,1.8-4,1.4l-2.6,6.1l-1.7-1.6
	l2.4-5.6c-0.3-0.2-0.6-0.5-0.9-0.8l-2.4-2.1l-3.8,4.2l-1.7-1.5l9.5-10.6l4.7,4.2C158.3,26.2,158.5,28.5,156.7,30.5 M141.8,13.6
	l-4.5,7.9c-1,1.7-2.6,2.3-4.5,1.3c-1.9-1.1-2.2-2.8-1.2-4.5l4.5-7.9l-2-1.1l-4.5,7.9c-1.7,3-1,5.7,2.2,7.5c3.1,1.8,5.8,1,7.5-2
	l4.5-7.9L141.8,13.6z M125.5,5.7l-4.2,13.7l-2.2-0.7l1.8-6l-6.6-2l-1.8,6l-2.2-0.7l4.2-13.7l2.2,0.7L115,8.6l6.6,2l1.7-5.6
	L125.5,5.7z M103.8,0.7l-2.1,14.1l2.3,0.3l2.1-14.1L103.8,0.7z M89.4,4.9l2.5,6.8l0.5,0l0.7-11.5L95.2,0l-0.9,14.4l-3.5,0.2
	l-2.6-7.3l-0.5,0L86,14.8L82.5,15L80.1,0.8l2.2-0.1l1.9,11.4l0.5,0l1.7-7L89.4,4.9z M63.7,5.1L68,18.7l2.2-0.7L65.9,4.4L63.7,5.1z
	 M57.9,9.4L54,11.3l5.3,10.9l-2.1,1l-5.3-10.9l-4,1.9l-0.9-1.9l10-4.9L57.9,9.4z M41.4,16l-9,6.5l1.2,1.7l3.6-2.6l7.1,9.9l1.9-1.3
	l-7.1-9.9l3.6-2.6L41.4,16z M26.7,28.1l10.6,9.6l-2.2,2.4l-11.8-3l-0.3,0.3l8,7.2l-1.5,1.6L19,36.7l2.2-2.4l11.8,3l0.3-0.3l-8-7.2
	L26.7,28.1z M19.4,51.1l-2.1,3.7l-4.1-4.3l0.4-0.7L19.4,51.1z M27,50.5l-14.7-3.1l-1.8,3.2l10.2,11l1.1-2l-2.9-3.1l2.8-4.9l4.2,0.9
	L27,50.5z M10,71.6c-2.7-0.6-5.1,0-5.8,3l-0.6,2.9l9.7,2.2l0.6-2.9C14.6,73.7,12.6,72.2,10,71.6 M16,77l-1.2,5.3L0.9,79.2l1.2-5.3
	c0.9-4.1,4.2-5.6,8.4-4.6C14.6,70.2,17,72.9,16,77 M0,91L10.8,91l0,0.5L0,97.1l0,3.2l14.3-0.1l0-2.2L3.5,98.2l0-0.5L14.3,92l0-3.2
	L0,88.8L0,91z M9.8,110.9l-5.2,2.9l0.2,0.8l5.9,0.5L9.8,110.9z M17.2,115.7l0.5,2.3l-14.9-1.5L2,112.8l13-7.4l0.5,2.3l-3.8,2.1
	l1.2,5.5L17.2,115.7z M16.1,134.3l-4,5.6l1.1,2.2l6-8.4l4.7-2.3l-1-2.1l-4.7,2.3l-10.3-0.4l1.1,2.2l6.9,0.3L16.1,134.3z M18.1,149
	l11.2-8.9l2,2.5l-4.9,11.2l0.3,0.4l8.5-6.7l1.4,1.7L25.3,158l-2-2.5l4.9-11.2L28,144l-8.5,6.7L18.1,149z M34.5,166.1l6.6-8.5
	l0.4,0.3l-2.2,12l2.6,2l8.8-11.3l-1.7-1.3l-6.6,8.5l-0.4-0.3l2.2-12l-2.6-2l-8.8,11.3L34.5,166.1z M54.9,165.3l0.9-2l9.1,4.3
	l-6.1,12.9l-8.9-4.2l0.9-2l6.8,3.2l1.6-3.3l-5.4-2.6l0.9-1.9l5.4,2.6l1.8-3.7L54.9,165.3z M75.7,170.4c-2.7-0.7-4.8,0.7-5.6,3.7
	l-2.3,9.3L70,184l2.3-9.3c0.5-1.8,1.5-2.5,2.8-2.1c1.3,0.3,1.9,1.3,1.7,3l2.2,0.6C79.6,173.1,78.3,171.1,75.7,170.4 M104,90.8
	l8.3,3.4l0.8-1.9l-8.3-3.4C104.6,89.5,104.3,90.1,104,90.8 M102,93.8l6.4,6.4l-1.5,1.5l-6.4-6.4C101,94.8,101.5,94.3,102,93.8
	 M79.9,93.8l-6.4,6.4l1.5,1.5l6.4-6.4C80.8,94.8,80.3,94.3,79.9,93.8 M77.8,90.8l-8.3,3.4l-0.8-1.9l8.3-3.4
	C77.3,89.5,77.5,90.1,77.8,90.8 M76.3,83.2h-9v2.1h9c0-0.3-0.1-0.7-0.1-1C76.3,83.9,76.3,83.5,76.3,83.2 M77,79.6l-8.3-3.4l0.8-1.9
	l8.3,3.4C77.5,78.3,77.3,78.9,77,79.6 M81.3,73.2L75,66.8l-1.5,1.5l6.4,6.4C80.3,74.1,80.8,73.6,81.3,73.2 M80.9,62.8l1.9-0.8
	l3.4,8.3c-0.7,0.2-1.3,0.5-1.9,0.8L80.9,62.8z M82.9,106.4l3.4-8.3c-0.7-0.2-1.3-0.5-1.9-0.8l-3.4,8.3L82.9,106.4z M89.9,69.6v-9H92
	v9c-0.3,0-0.7-0.1-1-0.1C90.6,69.6,90.2,69.6,89.9,69.6 M89.9,107.8H92v-9c-0.3,0-0.7,0.1-1,0.1c-0.4,0-0.7,0-1-0.1V107.8z
	 M100.9,105.6l-1.9,0.8l-3.4-8.3c0.7-0.2,1.3-0.5,1.9-0.8L100.9,105.6z M97.5,71.1l3.4-8.3L99,62l-3.4,8.3
	C96.2,70.6,96.8,70.8,97.5,71.1 M100.5,73.2l6.4-6.4l1.5,1.5l-6.4,6.4C101.5,74.1,101,73.6,100.5,73.2 M104.8,79.6l8.3-3.4l-0.8-1.9
	l-8.3,3.4C104.3,78.3,104.6,78.9,104.8,79.6 M105.5,84.2c0-0.4,0-0.7-0.1-1h9v2.1h-9C105.5,84.9,105.5,84.6,105.5,84.2 M81.1,42.1
	h21V40h-9.5V29.4h-2.1V40h-9.5V42.1z M131.9,52.1c-4,6.6-8.8,16.5-11,28.9c-2.3,12.8-1.2,25.3,3,37.2c-5.1-2.5-12.5-4.3-20.3-4.9
	c-11-0.8-21.3,1.1-29.3,5.1c-5.3-5.2-9.3-12.6-11.1-21.3L58.9,96c-1-17.9,5.2-32.7,8.5-38.8L131.9,52.1z M98.8,46.9l-1.3,5.8
	l-11.8,0.9l-1.4-6.7H98.8z M95.5,115.3c5.4-0.3,10.8,0.1,15.5,0.9c-4.3,5-9.6,8.3-15.5,9.3V115.3z M89.9,115.9
	c1.2-0.2,2.3-0.3,3.5-0.4v10.4c-0.5,0-1.1,0.1-1.7,0.1c-0.6,0-1.2,0-1.8-0.1V115.9z M87.8,116.2v9.4c-4.3-0.8-8.2-2.7-11.7-5.7
	C79.7,118.1,83.7,117,87.8,116.2 M63.4,104.7c5.1,13.8,15.9,23.3,28.4,23.3c8.4,0,15.9-4.3,21.6-11.3c1.4,0.3,2.7,0.7,4,1.1
	c-6.4,8.6-15.5,14.1-25.6,14.1c-14.8,0-27.5-11.7-32.8-28.3L63.4,104.7z M56.6,103c5.3,18,19,31,35.1,31c11,0,20.8-6,27.7-15.5
	c1.3,0.5,2.6,1,3.7,1.5c-7.6,10.9-18.8,17.8-31.3,17.8c-18.5,0-34.2-15.1-39.4-35.9L56.6,103z M50,101.4
	c5.2,22.2,21.9,38.6,41.7,38.6c20.6,0,37.9-17.7,42.3-41.4l4-0.6c-4.3,26.1-23.4,45.8-46.3,45.8c-22.2,0-40.8-18.6-45.9-43.5
	L50,101.4z M43.6,99.8c5,26.3,24.6,46.1,48.1,46.1c24.1,0,44.2-20.8,48.5-48.2l4-0.6c-0.5,3.4-1.2,6.8-2.1,10l0,0
	c0,0.1,0,0.2-0.1,0.3c-7.2,24.6-27.1,42.4-50.3,42.4c-25.9,0-47.5-22-52.2-51L43.6,99.8z M122.8,140.5c7.6-6.1,13.8-14.4,18.1-24.1
	c0,2.4,0.3,4.6,0.5,6.8c0.5,5.1,0.9,9.1-1.5,11.9C137.4,138.1,131.9,139.8,122.8,140.5 M127.8,99.4l4-0.6
	c-1.2,6.3-3.4,12.1-6.3,17.3c-0.6-1.8-1.1-3.6-1.6-5.4C125.6,107.2,126.9,103.4,127.8,99.4 M123.2,107.3c-0.5-2.3-0.8-4.7-1-7.1
	l3.4-0.5C124.9,102.3,124.1,104.9,123.2,107.3 M122.1,98.1c-0.1-1-0.1-2.1-0.1-3.1l28.7-4l-0.2,3.2L122.1,98.1z M150.8,88.8l-28.8,4
	c0-1,0-2,0.1-3.1l28.9-4.1L150.8,88.8z M134.8,51.5l1.1-1.8l-36.2,2.8l1.7-7.7H81.8l1.8,9l-17.6,1.4l-0.3,0.5
	c-3.2,5.9-9.9,21.2-9,39.8l-25.1-6.3l-0.5,2l30.3,7.6c0.3,1.2,0.6,2.4,1,3.6l-32.1-8l-0.5,2l7.4,1.8c4.6,30.4,27.2,53.6,54.4,53.6
	c10.2,0,19.8-3.3,28.1-9c11.8-0.6,18.5-2.6,21.7-6.3c3.1-3.6,2.6-8.2,2-13.5c-0.5-4.5-1-9.7,0.6-15.1c1-3.6,1.8-7.3,2.3-11.1
	l6.1-0.9l0.7-12.6l-31,4.4c0.2-2.1,0.5-4.2,0.8-6.4C125.3,68.1,130.7,57.8,134.8,51.5"/>
</svg>
